<?xml version="1.0" encoding="utf-8"?>
<!-- Generator: Adobe Illustrator 16.0.0, SVG Export Plug-In . SVG Version: 6.00 Build 0)  -->
<!DOCTYPE svg PUBLIC "-//W3C//DTD SVG 1.1//EN" "http://www.w3.org/Graphics/SVG/1.1/DTD/svg11.dtd">
<svg version="1.1" id="레이어_1" xmlns="http://www.w3.org/2000/svg" xmlns:xlink="http://www.w3.org/1999/xlink" x="0px"
	 y="0px" width="800px" height="178px" viewBox="0 0 800 178" enable-background="new 0 0 800 178" xml:space="preserve">
<g>
	<g>
		<g>
			<path fill="#555555" d="M255.816,127.012c-10.16,0-19.713-3.957-26.898-11.143s-11.144-16.738-11.144-26.9
				c0-10.16,3.958-19.713,11.144-26.898c7.185-7.186,16.737-11.143,26.898-11.143s19.714,3.957,26.9,11.143l-8.967,8.967
				c-4.791-4.791-11.159-7.429-17.934-7.429c-6.773,0-13.143,2.638-17.933,7.429c-4.79,4.79-7.428,11.158-7.428,17.932
				c0,6.775,2.638,13.145,7.428,17.934c4.791,4.791,11.159,7.428,17.933,7.428s13.143-2.637,17.933-7.428l8.967,8.967
				C275.53,123.055,265.977,127.012,255.816,127.012z"/>
		</g>
		<g>
			<path fill="#555555" d="M325.952,127.012c-20.976,0-38.041-17.066-38.041-38.041c0-20.977,17.065-38.042,38.041-38.042
				c20.977,0,38.041,17.065,38.041,38.042C363.993,109.945,346.929,127.012,325.952,127.012z M325.952,63.609
				c-13.983,0-25.36,11.377-25.36,25.361c0,13.982,11.377,25.359,25.36,25.359c13.984,0,25.361-11.377,25.361-25.359
				C351.313,74.986,339.937,63.609,325.952,63.609z"/>
		</g>
		<g>
			<path fill="#555555" d="M462,126h-12V50h46.82c16.433,0,29.8,13.568,29.8,30s-13.367,30-29.8,30H462V126z M462,97h34.82
				c9.439,0,17.119-7.561,17.119-17s-7.68-17-17.119-17H462V97z"/>
		</g>
		<path fill="#555555" d="M570,51.106c-20.977,0-38,17.113-38,38.147V126h13v-16h50v16h13V89.254
			C608,68.22,590.975,51.106,570,51.106z M545,97v-7.746c0-14.043,11.016-25.467,25-25.467s25,11.424,25,25.467V97H545z"/>
		<polygon fill="#555555" points="758,50 758,79.924 732.536,96.639 707,79.918 707,50 694,50 694,86.752 725,107.621 725,126 
			738,126 738,107.67 770,86.748 770,50 		"/>
		<polygon fill="#555555" points="676,96 668.172,96 622.431,50 613,50 613,126 626,126 626,72.625 662.927,108 676,108 676,126 
			689,126 689,50 676,50 		"/>
		<polygon fill="#555555" points="436.751,50 407.677,79.074 378.603,50 369,50 369,126 381,126 381,72.647 406.5,98.008 
			432,72.647 432,126 445,126 445,50 		"/>
	</g>
	<g>
		<g>
			<path fill="#FFBE27" d="M128.959,126.115c-2.813,0-5.655-0.221-8.451-0.654c-29.777-4.629-50.238-32.619-45.61-62.396
				c2.015-12.961,8.626-24.771,18.614-33.251c9.882-8.391,22.429-13.012,35.331-13.012c2.812,0,5.655,0.221,8.452,0.655
				c29.775,4.628,50.235,32.617,45.608,62.395c-2.015,12.961-8.626,24.771-18.614,33.252
				C154.407,121.494,141.86,126.115,128.959,126.115z M128.843,32.798c-18.842,0-35.238,14.067-38.138,32.724
				c-3.273,21.061,11.198,40.859,32.259,44.131c1.986,0.311,4.003,0.467,5.995,0.467c18.842,0,35.237-14.068,38.138-32.725
				c3.272-21.062-11.199-40.858-32.26-44.131C132.851,32.954,130.834,32.798,128.843,32.798z"/>
		</g>
		<path fill="#FFAA11" d="M53.304,18.223c-2.3-1.218-4.885-1.861-7.475-1.861c-5.945,0-11.365,3.263-14.145,8.514
			c-1.999,3.775-2.408,8.104-1.151,12.186c1.256,4.084,4.027,7.434,7.803,9.432c2.3,1.218,4.885,1.861,7.475,1.861
			c5.945,0,11.364-3.263,14.145-8.513C64.081,32.047,61.098,22.349,53.304,18.223z"/>
		<g>
			<path fill="#FFB217" d="M105.958,161.639c-0.709,0-1.43-0.096-2.146-0.295c-10.257-2.85-19.866-7.396-28.562-13.516
				c-8.465-5.955-15.845-13.238-21.935-21.65c-6.092-8.414-10.709-17.703-13.724-27.607c-3.098-10.182-4.414-20.743-3.914-31.392
				c0.208-4.413,3.956-7.821,8.365-7.614c4.413,0.208,7.821,3.953,7.614,8.365c-1.677,35.645,22.059,68.449,56.438,78.002
				c4.257,1.182,6.748,5.592,5.565,9.848C112.677,159.318,109.46,161.639,105.958,161.639z"/>
		</g>
	</g>
</g>
</svg>
