<?xml version="1.0" encoding="utf-8"?>
<!-- Generator: Adobe Illustrator 16.0.0, SVG Export Plug-In . SVG Version: 6.00 Build 0)  -->
<!DOCTYPE svg PUBLIC "-//W3C//DTD SVG 1.1//EN" "http://www.w3.org/Graphics/SVG/1.1/DTD/svg11.dtd">
<svg version="1.1" id="레이어_1" xmlns="http://www.w3.org/2000/svg" xmlns:xlink="http://www.w3.org/1999/xlink" x="0px"
	 y="0px" width="16px" height="16px" viewBox="0 0 16 16" enable-background="new 0 0 16 16" xml:space="preserve">
<g>
	<path fill="#FF9124" d="M11.813,16H4.188C1.878,16,0,14.121,0,11.813V4.188C0,1.878,1.878,0,4.188,0h7.625
		C14.121,0,16,1.878,16,4.188v7.625C16,14.121,14.121,16,11.813,16z M4.188,1C2.43,1,1,2.43,1,4.188v7.625C1,13.57,2.43,15,4.188,15
		h7.625C13.57,15,15,13.57,15,11.813V4.188C15,2.43,13.57,1,11.813,1H4.188z"/>
</g>
<g>
	<path fill="#FF9124" d="M12.153,6.965c0,1.991-1.5,3.44-3.517,3.44H7.218v2.621H4.597v-9.49h4.04
		C10.653,3.536,12.153,4.975,12.153,6.965z M9.466,6.971c0-0.674-0.454-1.151-1.143-1.151H7.218v2.303h1.105
		C9.012,8.122,9.466,7.646,9.466,6.971z"/>
</g>
</svg>
