<?xml version="1.0" encoding="utf-8"?>
<!-- Generator: Adobe Illustrator 16.0.0, SVG Export Plug-In . SVG Version: 6.00 Build 0)  -->
<!DOCTYPE svg PUBLIC "-//W3C//DTD SVG 1.1//EN" "http://www.w3.org/Graphics/SVG/1.1/DTD/svg11.dtd">
<svg version="1.1" id="레이어_1" xmlns="http://www.w3.org/2000/svg" xmlns:xlink="http://www.w3.org/1999/xlink" x="0px"
	 y="0px" width="16px" height="16px" viewBox="0 0 16 16" enable-background="new 0 0 16 16" xml:space="preserve">
<g>
	<path fill="#F9F9F7" d="M15.99,4.05C15.92,1.8,14.07,0,11.81,0H4.19C1.88,0,0,1.88,0,4.19v7.62C0,14.12,1.88,16,4.19,16h7.62
		C14.12,16,16,14.12,16,11.81V10.95V9.91V5.09v-0.9C16,4.14,16,4.1,15.99,4.05z M11.81,15H4.19C2.43,15,1,13.57,1,11.81V4.19
		C1,2.43,2.43,1,4.19,1h7.62c1.7,0,3.091,1.33,3.181,3h-4.975C8.636,4,8,5.12,8,6.5v2C8,9.88,8.636,11,10.016,11H15v0.81
		C15,13.57,13.57,15,11.81,15z M15,5v5h-4.984C9.186,10,9,9.33,9,8.5v-2C9,5.67,9.186,5,10.016,5H15z"/>
	<path fill="#F9F9F7" d="M9.422,7.5c0,0.861,0.701,1.563,1.563,1.563s1.563-0.701,1.563-1.563s-0.701-1.563-1.563-1.563
		S9.422,6.639,9.422,7.5z M10.984,6.938c0.311,0,0.563,0.252,0.563,0.563s-0.252,0.563-0.563,0.563S10.422,7.81,10.422,7.5
		S10.674,6.938,10.984,6.938z"/>
</g>
</svg>
