<?xml version="1.0" encoding="utf-8"?>
<!-- Generator: Adobe Illustrator 16.0.0, SVG Export Plug-In . SVG Version: 6.00 Build 0)  -->
<!DOCTYPE svg PUBLIC "-//W3C//DTD SVG 1.1//EN" "http://www.w3.org/Graphics/SVG/1.1/DTD/svg11.dtd">
<svg version="1.1" id="레이어_1" xmlns="http://www.w3.org/2000/svg" xmlns:xlink="http://www.w3.org/1999/xlink" x="0px"
	 y="0px" width="16px" height="16px" viewBox="0 0 16 16" enable-background="new 0 0 16 16" xml:space="preserve">
<g>
	<path fill="#FF9124" d="M11.813,16H4.188C1.878,16,0,14.121,0,11.813V4.188C0,1.878,1.878,0,4.188,0h7.625
		C14.121,0,16,1.878,16,4.188v7.625C16,14.121,14.121,16,11.813,16z M4.188,1C2.43,1,1,2.43,1,4.188v7.625C1,13.57,2.43,15,4.188,15
		h7.625C13.57,15,15,13.57,15,11.813V4.188C15,2.43,13.57,1,11.813,1H4.188z"/>
</g>
<g>
	<path fill="#FF9124" d="M7.552,9.844H6.603v2.908H3.984V3.248h4.119c2.049,0,3.536,1.377,3.536,3.364
		c0,1.167-0.57,2.123-1.508,2.686l1.885,3.455H9.094L7.552,9.844z M6.603,7.639h1.196c0.733,0,1.153-0.441,1.153-1.035
		s-0.42-1.029-1.153-1.029H6.603V7.639z"/>
</g>
</svg>
