<?xml version="1.0" encoding="utf-8"?>
<!-- Generator: Adobe Illustrator 16.0.0, SVG Export Plug-In . SVG Version: 6.00 Build 0)  -->
<!DOCTYPE svg PUBLIC "-//W3C//DTD SVG 1.1//EN" "http://www.w3.org/Graphics/SVG/1.1/DTD/svg11.dtd">
<svg version="1.1" id="레이어_1" xmlns="http://www.w3.org/2000/svg" xmlns:xlink="http://www.w3.org/1999/xlink" x="0px"
	 y="0px" width="107.451px" height="39.521px" viewBox="209.53 78 107.451 39.521"
	 enable-background="new 209.53 78 107.451 39.521" xml:space="preserve">
<g>
	<g>
		<path fill="#FF9124" d="M220.58,110.577V99.57h5.054v10.914c0,1.755,1.131,2.889,2.782,2.889s2.782-1.134,2.782-2.889V99.57h5.055
			v11.007c0,4.417-3.26,7.397-7.836,7.397C223.84,117.975,220.58,114.994,220.58,110.577z"/>
		<path fill="#FF9124" d="M255.554,99.57v17.951h-4.09l-7.131-9.742v9.742h-4.792V99.57h4.328l6.893,9.418V99.57H255.554z"/>
		<path fill="#FF9124" d="M275.938,108.043c1.691,0.802,2.753,2.408,2.753,4.367c0,2.908-2.511,5.111-5.824,5.111h-8.273V99.57
			h8.108c3.183,0,5.506,1.942,5.506,4.595C278.208,105.769,277.31,107.212,275.938,108.043L275.938,108.043z M273.8,111.821
			c0-0.953-0.7-1.624-1.771-1.624h-2.686v3.265h2.686C273.1,113.462,273.8,112.79,273.8,111.821z M273.514,104.983
			c0-0.931-0.638-1.563-1.672-1.563h-2.499v3.126h2.499C272.876,106.547,273.514,105.916,273.514,104.983L273.514,104.983z"/>
		<path fill="#FF9124" d="M290.236,117.976c-5.771,0-9.889-3.943-9.889-9.43s4.118-9.429,9.889-9.429
			c5.756,0,9.859,3.928,9.859,9.429S295.992,117.975,290.236,117.976L290.236,117.976z M290.236,113.374
			c2.732,0,4.71-2.019,4.71-4.827c0-2.81-1.978-4.828-4.71-4.828s-4.739,2.033-4.739,4.828
			C285.497,111.341,287.504,113.374,290.236,113.374L290.236,113.374z"/>
		<path fill="#FF9124" d="M311.381,117.521l-2.952-5.515l-2.985,5.515h-5.61l5.398-9.346l-5.099-8.605h5.578l2.691,5.079
			l2.715-5.079h5.504l-5.041,8.696l5.4,9.255H311.381z"/>
	</g>
	<rect x="264.632" y="78" fill="#FF9124" width="52.041" height="5.102"/>
	<rect x="264.632" y="88.408" fill="#FF9124" width="52.041" height="5.102"/>
	<polygon fill="#FF9124" points="255.652,83.102 255.652,78 209.53,78 209.53,118 214.632,118 214.632,93.51 255.652,93.51 
		255.652,88.408 214.632,88.408 214.632,83.102 	"/>
</g>
</svg>
